<svg xmlns="http://www.w3.org/2000/svg" viewBox="0 0 99.4 15.2"><defs><style>.cls-1{fill:#ed1c24;fill-rule:evenodd;}</style></defs><g id="Слой_2" data-name="Слой 2"><g id="Layer_1" data-name="Layer 1"><path class="cls-1" d="M27.2,0h0l6.7,15.1H30l-.9-1.9H21.4l-.9,1.9H16.6L23.3,0h3.9Zm.4,9.8L25.2,4.4,22.8,9.8ZM42.3,3.4V7.2H48a1.9,1.9,0,0,0,0-3.8H42.3ZM53,5.3a5.45,5.45,0,0,1-3.4,5l3.7,4.9H49.1l-3.5-4.5H42.2v4.5H38.3V0h9.6A5.3,5.3,0,0,1,53,5.3ZM9.6,7.2a1.9,1.9,0,0,0,0-3.8H3.9V7.2H9.6ZM9.6,0a5.23,5.23,0,0,1,5.1,5.3,5.25,5.25,0,0,1-5.2,5.3H3.9v4.5H0V0ZM88.4,9.8h4.8L90.8,4.4C90.7,4.4,88.4,9.8,88.4,9.8Zm7.1,5.3-.9-1.9H86.9L86,15.1H82.1L88.8,0h3.9l6.7,15.1ZM68.4,7.4l5-7.4h3.9V15.1H73.4V6.4l-5.1,7.4L63.2,6.4v8.7H59.3V0h3.9l5.2,7.4Z"/></g></g></svg>